<?xml version="1.0" encoding="UTF-8" standalone="no"?>
<!DOCTYPE svg PUBLIC "-//W3C//DTD SVG 1.1//EN"
 "http://www.w3.org/Graphics/SVG/1.1/DTD/svg11.dtd">
<!-- Generated by graphviz version 2.43.0 (0)
 -->
<!-- Title: G Pages: 1 -->
<svg width="1537pt" height="640pt"
 viewBox="0.00 0.00 1537.00 640.00" xmlns="http://www.w3.org/2000/svg" xmlns:xlink="http://www.w3.org/1999/xlink">
<g id="graph0" class="graph" transform="scale(1 1) rotate(0) translate(4 636)">
<title>G</title>
<polygon fill="lemonchiffon" stroke="transparent" points="-4,4 -4,-636 1533,-636 1533,4 -4,4"/>
<!-- node_0x56195ec852c0 -->
<g id="node1" class="node">
<title>node_0x56195ec852c0</title>
<path fill="salmon" stroke="#000000" stroke-width="2.5" d="M354,-539.5C354,-539.5 722,-539.5 722,-539.5 728,-539.5 734,-545.5 734,-551.5 734,-551.5 734,-619.5 734,-619.5 734,-625.5 728,-631.5 722,-631.5 722,-631.5 354,-631.5 354,-631.5 348,-631.5 342,-625.5 342,-619.5 342,-619.5 342,-551.5 342,-551.5 342,-545.5 348,-539.5 354,-539.5"/>
<text text-anchor="middle" x="538" y="-616.3" font-family="Helvetica,sans-Serif" font-size="14.00" fill="#000000">Program</text>
<polyline fill="none" stroke="#000000" stroke-width="2.5" points="342,-608.5 734,-608.5 "/>
<text text-anchor="middle" x="538" y="-593.3" font-family="Helvetica,sans-Serif" font-size="14.00" fill="#000000">addr: 0x56195ec852c0</text>
<polyline fill="none" stroke="#000000" stroke-width="2.5" points="342,-585.5 734,-585.5 "/>
<text text-anchor="middle" x="538" y="-570.3" font-family="Helvetica,sans-Serif" font-size="14.00" fill="#000000">parent: nullptr</text>
<polyline fill="none" stroke="#000000" stroke-width="2.5" points="342,-562.5 734,-562.5 "/>
<text text-anchor="middle" x="440" y="-547.3" font-family="Helvetica,sans-Serif" font-size="14.00" fill="#000000">stmt_0: 0x56195ec85000</text>
<polyline fill="none" stroke="#000000" stroke-width="2.5" points="538,-539.5 538,-562.5 "/>
<text text-anchor="middle" x="636" y="-547.3" font-family="Helvetica,sans-Serif" font-size="14.00" fill="#000000">stmt_1: 0x56195ec85270</text>
</g>
<!-- node_0x56195ec85000 -->
<g id="node2" class="node">
<title>node_0x56195ec85000</title>
<path fill="plum" stroke="#000000" stroke-width="2.5" d="M148.5,-410.5C148.5,-410.5 469.5,-410.5 469.5,-410.5 475.5,-410.5 481.5,-416.5 481.5,-422.5 481.5,-422.5 481.5,-490.5 481.5,-490.5 481.5,-496.5 475.5,-502.5 469.5,-502.5 469.5,-502.5 148.5,-502.5 148.5,-502.5 142.5,-502.5 136.5,-496.5 136.5,-490.5 136.5,-490.5 136.5,-422.5 136.5,-422.5 136.5,-416.5 142.5,-410.5 148.5,-410.5"/>
<text text-anchor="middle" x="309" y="-487.3" font-family="Helvetica,sans-Serif" font-size="14.00" fill="#000000">Assignment</text>
<polyline fill="none" stroke="#000000" stroke-width="2.5" points="136.5,-479.5 481.5,-479.5 "/>
<text text-anchor="middle" x="309" y="-464.3" font-family="Helvetica,sans-Serif" font-size="14.00" fill="#000000">addr: 0x56195ec85000</text>
<polyline fill="none" stroke="#000000" stroke-width="2.5" points="136.5,-456.5 481.5,-456.5 "/>
<text text-anchor="middle" x="309" y="-441.3" font-family="Helvetica,sans-Serif" font-size="14.00" fill="#000000">parent: 0x56195ec852c0</text>
<polyline fill="none" stroke="#000000" stroke-width="2.5" points="136.5,-433.5 481.5,-433.5 "/>
<text text-anchor="middle" x="220" y="-418.3" font-family="Helvetica,sans-Serif" font-size="14.00" fill="#000000">left: 0x56195ec84fd0</text>
<polyline fill="none" stroke="#000000" stroke-width="2.5" points="303.5,-410.5 303.5,-433.5 "/>
<text text-anchor="middle" x="392.5" y="-418.3" font-family="Helvetica,sans-Serif" font-size="14.00" fill="#000000">right: 0x56195ec84fb0</text>
</g>
<!-- node_0x56195ec852c0&#45;&gt;node_0x56195ec85000 -->
<g id="edge1" class="edge">
<title>node_0x56195ec852c0&#45;&gt;node_0x56195ec85000</title>
<path fill="none" stroke="black" d="M456.62,-539.37C438.08,-529.09 418.28,-518.11 399.4,-507.63"/>
<polygon fill="black" stroke="black" points="400.95,-504.49 390.51,-502.7 397.55,-510.61 400.95,-504.49"/>
</g>
<!-- node_0x56195ec85270 -->
<g id="node5" class="node">
<title>node_0x56195ec85270</title>
<path fill="turquoise" stroke="#000000" stroke-width="2.5" d="M573.5,-410.5C573.5,-410.5 1086.5,-410.5 1086.5,-410.5 1092.5,-410.5 1098.5,-416.5 1098.5,-422.5 1098.5,-422.5 1098.5,-490.5 1098.5,-490.5 1098.5,-496.5 1092.5,-502.5 1086.5,-502.5 1086.5,-502.5 573.5,-502.5 573.5,-502.5 567.5,-502.5 561.5,-496.5 561.5,-490.5 561.5,-490.5 561.5,-422.5 561.5,-422.5 561.5,-416.5 567.5,-410.5 573.5,-410.5"/>
<text text-anchor="middle" x="830" y="-487.3" font-family="Helvetica,sans-Serif" font-size="14.00" fill="#000000">If</text>
<polyline fill="none" stroke="#000000" stroke-width="2.5" points="561.5,-479.5 1098.5,-479.5 "/>
<text text-anchor="middle" x="830" y="-464.3" font-family="Helvetica,sans-Serif" font-size="14.00" fill="#000000">addr: 0x56195ec85270</text>
<polyline fill="none" stroke="#000000" stroke-width="2.5" points="561.5,-456.5 1098.5,-456.5 "/>
<text text-anchor="middle" x="830" y="-441.3" font-family="Helvetica,sans-Serif" font-size="14.00" fill="#000000">parent: 0x56195ec852c0</text>
<polyline fill="none" stroke="#000000" stroke-width="2.5" points="561.5,-433.5 1098.5,-433.5 "/>
<text text-anchor="middle" x="652" y="-418.3" font-family="Helvetica,sans-Serif" font-size="14.00" fill="#000000">cond: 0x56195ec850c0</text>
<polyline fill="none" stroke="#000000" stroke-width="2.5" points="742.5,-410.5 742.5,-433.5 "/>
<text text-anchor="middle" x="832.5" y="-418.3" font-family="Helvetica,sans-Serif" font-size="14.00" fill="#000000">then: 0x56195ec85180</text>
<polyline fill="none" stroke="#000000" stroke-width="2.5" points="922.5,-410.5 922.5,-433.5 "/>
<text text-anchor="middle" x="1010.5" y="-418.3" font-family="Helvetica,sans-Serif" font-size="14.00" fill="#000000">else: 0x56195ec85240</text>
</g>
<!-- node_0x56195ec852c0&#45;&gt;node_0x56195ec85270 -->
<g id="edge4" class="edge">
<title>node_0x56195ec852c0&#45;&gt;node_0x56195ec85270</title>
<path fill="none" stroke="black" d="M641.77,-539.37C666.04,-528.81 692.02,-517.51 716.69,-506.78"/>
<polygon fill="black" stroke="black" points="718.3,-509.9 726.07,-502.7 715.51,-503.48 718.3,-509.9"/>
</g>
<!-- node_0x56195ec84fd0 -->
<g id="node3" class="node">
<title>node_0x56195ec84fd0</title>
<path fill="cornflowerblue" stroke="#000000" stroke-width="2.5" d="M12,-270C12,-270 182,-270 182,-270 188,-270 194,-276 194,-282 194,-282 194,-350 194,-350 194,-356 188,-362 182,-362 182,-362 12,-362 12,-362 6,-362 0,-356 0,-350 0,-350 0,-282 0,-282 0,-276 6,-270 12,-270"/>
<text text-anchor="middle" x="97" y="-346.8" font-family="Helvetica,sans-Serif" font-size="14.00" fill="#000000">Variable</text>
<polyline fill="none" stroke="#000000" stroke-width="2.5" points="0,-339 194,-339 "/>
<text text-anchor="middle" x="97" y="-323.8" font-family="Helvetica,sans-Serif" font-size="14.00" fill="#000000">addr: 0x56195ec84fd0</text>
<polyline fill="none" stroke="#000000" stroke-width="2.5" points="0,-316 194,-316 "/>
<text text-anchor="middle" x="97" y="-300.8" font-family="Helvetica,sans-Serif" font-size="14.00" fill="#000000">parent: 0x56195ec85000</text>
<polyline fill="none" stroke="#000000" stroke-width="2.5" points="0,-293 194,-293 "/>
<text text-anchor="middle" x="97" y="-277.8" font-family="Helvetica,sans-Serif" font-size="14.00" fill="#000000">name: s</text>
</g>
<!-- node_0x56195ec85000&#45;&gt;node_0x56195ec84fd0 -->
<g id="edge2" class="edge">
<title>node_0x56195ec85000&#45;&gt;node_0x56195ec84fd0</title>
<path fill="none" stroke="black" d="M239.88,-410.34C218.97,-396.68 195.87,-381.6 174.46,-367.6"/>
<polygon fill="black" stroke="black" points="176.32,-364.64 166.03,-362.1 172.49,-370.5 176.32,-364.64"/>
</g>
<!-- node_0x56195ec84fb0 -->
<g id="node4" class="node">
<title>node_0x56195ec84fb0</title>
<path fill="palegreen" stroke="#000000" stroke-width="2.5" d="M224,-270C224,-270 394,-270 394,-270 400,-270 406,-276 406,-282 406,-282 406,-350 406,-350 406,-356 400,-362 394,-362 394,-362 224,-362 224,-362 218,-362 212,-356 212,-350 212,-350 212,-282 212,-282 212,-276 218,-270 224,-270"/>
<text text-anchor="middle" x="309" y="-346.8" font-family="Helvetica,sans-Serif" font-size="14.00" fill="#000000">Number</text>
<polyline fill="none" stroke="#000000" stroke-width="2.5" points="212,-339 406,-339 "/>
<text text-anchor="middle" x="309" y="-323.8" font-family="Helvetica,sans-Serif" font-size="14.00" fill="#000000">addr: 0x56195ec84fb0</text>
<polyline fill="none" stroke="#000000" stroke-width="2.5" points="212,-316 406,-316 "/>
<text text-anchor="middle" x="309" y="-300.8" font-family="Helvetica,sans-Serif" font-size="14.00" fill="#000000">parent: 0x56195ec85000</text>
<polyline fill="none" stroke="#000000" stroke-width="2.5" points="212,-293 406,-293 "/>
<text text-anchor="middle" x="309" y="-277.8" font-family="Helvetica,sans-Serif" font-size="14.00" fill="#000000">value: 3</text>
</g>
<!-- node_0x56195ec85000&#45;&gt;node_0x56195ec84fb0 -->
<g id="edge3" class="edge">
<title>node_0x56195ec85000&#45;&gt;node_0x56195ec84fb0</title>
<path fill="none" stroke="black" d="M309,-410.15C309,-398.19 309,-385.15 309,-372.72"/>
<polygon fill="black" stroke="black" points="312.5,-372.45 309,-362.45 305.5,-372.45 312.5,-372.45"/>
</g>
<!-- node_0x56195ec850c0 -->
<g id="node6" class="node">
<title>node_0x56195ec850c0</title>
<path fill="#cae1ff" stroke="#000000" stroke-width="2.5" d="M436.5,-258.5C436.5,-258.5 763.5,-258.5 763.5,-258.5 769.5,-258.5 775.5,-264.5 775.5,-270.5 775.5,-270.5 775.5,-361.5 775.5,-361.5 775.5,-367.5 769.5,-373.5 763.5,-373.5 763.5,-373.5 436.5,-373.5 436.5,-373.5 430.5,-373.5 424.5,-367.5 424.5,-361.5 424.5,-361.5 424.5,-270.5 424.5,-270.5 424.5,-264.5 430.5,-258.5 436.5,-258.5"/>
<text text-anchor="middle" x="600" y="-358.3" font-family="Helvetica,sans-Serif" font-size="14.00" fill="#000000">Binary operator</text>
<polyline fill="none" stroke="#000000" stroke-width="2.5" points="424.5,-350.5 775.5,-350.5 "/>
<text text-anchor="middle" x="600" y="-335.3" font-family="Helvetica,sans-Serif" font-size="14.00" fill="#000000">addr: 0x56195ec850c0</text>
<polyline fill="none" stroke="#000000" stroke-width="2.5" points="424.5,-327.5 775.5,-327.5 "/>
<text text-anchor="middle" x="600" y="-312.3" font-family="Helvetica,sans-Serif" font-size="14.00" fill="#000000">parent: 0x56195ec85270</text>
<polyline fill="none" stroke="#000000" stroke-width="2.5" points="424.5,-304.5 775.5,-304.5 "/>
<text text-anchor="middle" x="600" y="-289.3" font-family="Helvetica,sans-Serif" font-size="14.00" fill="#000000">operator: !=</text>
<polyline fill="none" stroke="#000000" stroke-width="2.5" points="424.5,-281.5 775.5,-281.5 "/>
<text text-anchor="middle" x="509.5" y="-266.3" font-family="Helvetica,sans-Serif" font-size="14.00" fill="#000000">left: 0x56195ec85070</text>
<polyline fill="none" stroke="#000000" stroke-width="2.5" points="594.5,-258.5 594.5,-281.5 "/>
<text text-anchor="middle" x="685" y="-266.3" font-family="Helvetica,sans-Serif" font-size="14.00" fill="#000000">right: 0x56195ec850a0</text>
</g>
<!-- node_0x56195ec85270&#45;&gt;node_0x56195ec850c0 -->
<g id="edge5" class="edge">
<title>node_0x56195ec85270&#45;&gt;node_0x56195ec850c0</title>
<path fill="none" stroke="black" d="M755.01,-410.34C738.33,-400.3 720.38,-389.49 702.81,-378.91"/>
<polygon fill="black" stroke="black" points="704.59,-375.9 694.22,-373.74 700.98,-381.89 704.59,-375.9"/>
</g>
<!-- node_0x56195ec85180 -->
<g id="node9" class="node">
<title>node_0x56195ec85180</title>
<path fill="#ffec8b" stroke="#000000" stroke-width="2.5" d="M806,-270C806,-270 978,-270 978,-270 984,-270 990,-276 990,-282 990,-282 990,-350 990,-350 990,-356 984,-362 978,-362 978,-362 806,-362 806,-362 800,-362 794,-356 794,-350 794,-350 794,-282 794,-282 794,-276 800,-270 806,-270"/>
<text text-anchor="middle" x="892" y="-346.8" font-family="Helvetica,sans-Serif" font-size="14.00" fill="#000000">Block</text>
<polyline fill="none" stroke="#000000" stroke-width="2.5" points="794,-339 990,-339 "/>
<text text-anchor="middle" x="892" y="-323.8" font-family="Helvetica,sans-Serif" font-size="14.00" fill="#000000">addr: 0x56195ec85180</text>
<polyline fill="none" stroke="#000000" stroke-width="2.5" points="794,-316 990,-316 "/>
<text text-anchor="middle" x="892" y="-300.8" font-family="Helvetica,sans-Serif" font-size="14.00" fill="#000000">parent: 0x56195ec85270</text>
<polyline fill="none" stroke="#000000" stroke-width="2.5" points="794,-293 990,-293 "/>
<text text-anchor="middle" x="892" y="-277.8" font-family="Helvetica,sans-Serif" font-size="14.00" fill="#000000">stmt_0: 0x56195ec85140</text>
</g>
<!-- node_0x56195ec85270&#45;&gt;node_0x56195ec85180 -->
<g id="edge8" class="edge">
<title>node_0x56195ec85270&#45;&gt;node_0x56195ec85180</title>
<path fill="none" stroke="black" d="M850.3,-410.15C855.81,-397.83 861.84,-384.37 867.56,-371.6"/>
<polygon fill="black" stroke="black" points="870.76,-373.01 871.65,-362.45 864.37,-370.15 870.76,-373.01"/>
</g>
<!-- node_0x56195ec85240 -->
<g id="node13" class="node">
<title>node_0x56195ec85240</title>
<path fill="#ffec8b" stroke="#000000" stroke-width="2.5" d="M1097,-270C1097,-270 1269,-270 1269,-270 1275,-270 1281,-276 1281,-282 1281,-282 1281,-350 1281,-350 1281,-356 1275,-362 1269,-362 1269,-362 1097,-362 1097,-362 1091,-362 1085,-356 1085,-350 1085,-350 1085,-282 1085,-282 1085,-276 1091,-270 1097,-270"/>
<text text-anchor="middle" x="1183" y="-346.8" font-family="Helvetica,sans-Serif" font-size="14.00" fill="#000000">Block</text>
<polyline fill="none" stroke="#000000" stroke-width="2.5" points="1085,-339 1281,-339 "/>
<text text-anchor="middle" x="1183" y="-323.8" font-family="Helvetica,sans-Serif" font-size="14.00" fill="#000000">addr: 0x56195ec85240</text>
<polyline fill="none" stroke="#000000" stroke-width="2.5" points="1085,-316 1281,-316 "/>
<text text-anchor="middle" x="1183" y="-300.8" font-family="Helvetica,sans-Serif" font-size="14.00" fill="#000000">parent: 0x56195ec85270</text>
<polyline fill="none" stroke="#000000" stroke-width="2.5" points="1085,-293 1281,-293 "/>
<text text-anchor="middle" x="1183" y="-277.8" font-family="Helvetica,sans-Serif" font-size="14.00" fill="#000000">stmt_0: 0x56195ec85200</text>
</g>
<!-- node_0x56195ec85270&#45;&gt;node_0x56195ec85240 -->
<g id="edge12" class="edge">
<title>node_0x56195ec85270&#45;&gt;node_0x56195ec85240</title>
<path fill="none" stroke="black" d="M945.1,-410.34C987,-393.9 1034.18,-375.39 1075.41,-359.21"/>
<polygon fill="black" stroke="black" points="1076.9,-362.39 1084.93,-355.48 1074.34,-355.87 1076.9,-362.39"/>
</g>
<!-- node_0x56195ec85070 -->
<g id="node7" class="node">
<title>node_0x56195ec85070</title>
<path fill="cornflowerblue" stroke="#000000" stroke-width="2.5" d="M307,-129.5C307,-129.5 475,-129.5 475,-129.5 481,-129.5 487,-135.5 487,-141.5 487,-141.5 487,-209.5 487,-209.5 487,-215.5 481,-221.5 475,-221.5 475,-221.5 307,-221.5 307,-221.5 301,-221.5 295,-215.5 295,-209.5 295,-209.5 295,-141.5 295,-141.5 295,-135.5 301,-129.5 307,-129.5"/>
<text text-anchor="middle" x="391" y="-206.3" font-family="Helvetica,sans-Serif" font-size="14.00" fill="#000000">Variable</text>
<polyline fill="none" stroke="#000000" stroke-width="2.5" points="295,-198.5 487,-198.5 "/>
<text text-anchor="middle" x="391" y="-183.3" font-family="Helvetica,sans-Serif" font-size="14.00" fill="#000000">addr: 0x56195ec85070</text>
<polyline fill="none" stroke="#000000" stroke-width="2.5" points="295,-175.5 487,-175.5 "/>
<text text-anchor="middle" x="391" y="-160.3" font-family="Helvetica,sans-Serif" font-size="14.00" fill="#000000">parent: 0x56195ec850c0</text>
<polyline fill="none" stroke="#000000" stroke-width="2.5" points="295,-152.5 487,-152.5 "/>
<text text-anchor="middle" x="391" y="-137.3" font-family="Helvetica,sans-Serif" font-size="14.00" fill="#000000">name: s</text>
</g>
<!-- node_0x56195ec850c0&#45;&gt;node_0x56195ec85070 -->
<g id="edge6" class="edge">
<title>node_0x56195ec850c0&#45;&gt;node_0x56195ec85070</title>
<path fill="none" stroke="black" d="M514.69,-258.47C499.07,-248.12 482.86,-237.37 467.52,-227.21"/>
<polygon fill="black" stroke="black" points="469.36,-224.23 459.09,-221.62 465.5,-230.07 469.36,-224.23"/>
</g>
<!-- node_0x56195ec850a0 -->
<g id="node8" class="node">
<title>node_0x56195ec850a0</title>
<path fill="palegreen" stroke="#000000" stroke-width="2.5" d="M517,-129.5C517,-129.5 685,-129.5 685,-129.5 691,-129.5 697,-135.5 697,-141.5 697,-141.5 697,-209.5 697,-209.5 697,-215.5 691,-221.5 685,-221.5 685,-221.5 517,-221.5 517,-221.5 511,-221.5 505,-215.5 505,-209.5 505,-209.5 505,-141.5 505,-141.5 505,-135.5 511,-129.5 517,-129.5"/>
<text text-anchor="middle" x="601" y="-206.3" font-family="Helvetica,sans-Serif" font-size="14.00" fill="#000000">Number</text>
<polyline fill="none" stroke="#000000" stroke-width="2.5" points="505,-198.5 697,-198.5 "/>
<text text-anchor="middle" x="601" y="-183.3" font-family="Helvetica,sans-Serif" font-size="14.00" fill="#000000">addr: 0x56195ec850a0</text>
<polyline fill="none" stroke="#000000" stroke-width="2.5" points="505,-175.5 697,-175.5 "/>
<text text-anchor="middle" x="601" y="-160.3" font-family="Helvetica,sans-Serif" font-size="14.00" fill="#000000">parent: 0x56195ec850c0</text>
<polyline fill="none" stroke="#000000" stroke-width="2.5" points="505,-152.5 697,-152.5 "/>
<text text-anchor="middle" x="601" y="-137.3" font-family="Helvetica,sans-Serif" font-size="14.00" fill="#000000">value: 2</text>
</g>
<!-- node_0x56195ec850c0&#45;&gt;node_0x56195ec850a0 -->
<g id="edge7" class="edge">
<title>node_0x56195ec850c0&#45;&gt;node_0x56195ec850a0</title>
<path fill="none" stroke="black" d="M600.41,-258.27C600.47,-249.57 600.54,-240.6 600.6,-231.93"/>
<polygon fill="black" stroke="black" points="604.1,-231.95 600.67,-221.92 597.1,-231.9 604.1,-231.95"/>
</g>
<!-- node_0x56195ec85140 -->
<g id="node10" class="node">
<title>node_0x56195ec85140</title>
<path fill="plum" stroke="#000000" stroke-width="2.5" d="M729,-129.5C729,-129.5 1053,-129.5 1053,-129.5 1059,-129.5 1065,-135.5 1065,-141.5 1065,-141.5 1065,-209.5 1065,-209.5 1065,-215.5 1059,-221.5 1053,-221.5 1053,-221.5 729,-221.5 729,-221.5 723,-221.5 717,-215.5 717,-209.5 717,-209.5 717,-141.5 717,-141.5 717,-135.5 723,-129.5 729,-129.5"/>
<text text-anchor="middle" x="891" y="-206.3" font-family="Helvetica,sans-Serif" font-size="14.00" fill="#000000">Assignment</text>
<polyline fill="none" stroke="#000000" stroke-width="2.5" points="717,-198.5 1065,-198.5 "/>
<text text-anchor="middle" x="891" y="-183.3" font-family="Helvetica,sans-Serif" font-size="14.00" fill="#000000">addr: 0x56195ec85140</text>
<polyline fill="none" stroke="#000000" stroke-width="2.5" points="717,-175.5 1065,-175.5 "/>
<text text-anchor="middle" x="891" y="-160.3" font-family="Helvetica,sans-Serif" font-size="14.00" fill="#000000">parent: 0x56195ec85180</text>
<polyline fill="none" stroke="#000000" stroke-width="2.5" points="717,-152.5 1065,-152.5 "/>
<text text-anchor="middle" x="802" y="-137.3" font-family="Helvetica,sans-Serif" font-size="14.00" fill="#000000">left: 0x56195ec85110</text>
<polyline fill="none" stroke="#000000" stroke-width="2.5" points="887,-129.5 887,-152.5 "/>
<text text-anchor="middle" x="976" y="-137.3" font-family="Helvetica,sans-Serif" font-size="14.00" fill="#000000">right: 0x56195ec850f0</text>
</g>
<!-- node_0x56195ec85180&#45;&gt;node_0x56195ec85140 -->
<g id="edge9" class="edge">
<title>node_0x56195ec85180&#45;&gt;node_0x56195ec85140</title>
<path fill="none" stroke="black" d="M891.67,-269.65C891.59,-257.69 891.49,-244.65 891.4,-232.22"/>
<polygon fill="black" stroke="black" points="894.9,-231.93 891.33,-221.95 887.9,-231.98 894.9,-231.93"/>
</g>
<!-- node_0x56195ec85110 -->
<g id="node11" class="node">
<title>node_0x56195ec85110</title>
<path fill="cornflowerblue" stroke="#000000" stroke-width="2.5" d="M633,-0.5C633,-0.5 803,-0.5 803,-0.5 809,-0.5 815,-6.5 815,-12.5 815,-12.5 815,-80.5 815,-80.5 815,-86.5 809,-92.5 803,-92.5 803,-92.5 633,-92.5 633,-92.5 627,-92.5 621,-86.5 621,-80.5 621,-80.5 621,-12.5 621,-12.5 621,-6.5 627,-0.5 633,-0.5"/>
<text text-anchor="middle" x="718" y="-77.3" font-family="Helvetica,sans-Serif" font-size="14.00" fill="#000000">Variable</text>
<polyline fill="none" stroke="#000000" stroke-width="2.5" points="621,-69.5 815,-69.5 "/>
<text text-anchor="middle" x="718" y="-54.3" font-family="Helvetica,sans-Serif" font-size="14.00" fill="#000000">addr: 0x56195ec85110</text>
<polyline fill="none" stroke="#000000" stroke-width="2.5" points="621,-46.5 815,-46.5 "/>
<text text-anchor="middle" x="718" y="-31.3" font-family="Helvetica,sans-Serif" font-size="14.00" fill="#000000">parent: 0x56195ec85140</text>
<polyline fill="none" stroke="#000000" stroke-width="2.5" points="621,-23.5 815,-23.5 "/>
<text text-anchor="middle" x="718" y="-8.3" font-family="Helvetica,sans-Serif" font-size="14.00" fill="#000000">name: s</text>
</g>
<!-- node_0x56195ec85140&#45;&gt;node_0x56195ec85110 -->
<g id="edge10" class="edge">
<title>node_0x56195ec85140&#45;&gt;node_0x56195ec85110</title>
<path fill="none" stroke="black" d="M829.52,-129.37C815.96,-119.41 801.51,-108.8 787.65,-98.63"/>
<polygon fill="black" stroke="black" points="789.71,-95.8 779.57,-92.7 785.56,-101.44 789.71,-95.8"/>
</g>
<!-- node_0x56195ec850f0 -->
<g id="node12" class="node">
<title>node_0x56195ec850f0</title>
<path fill="palegreen" stroke="#000000" stroke-width="2.5" d="M845,-0.5C845,-0.5 1015,-0.5 1015,-0.5 1021,-0.5 1027,-6.5 1027,-12.5 1027,-12.5 1027,-80.5 1027,-80.5 1027,-86.5 1021,-92.5 1015,-92.5 1015,-92.5 845,-92.5 845,-92.5 839,-92.5 833,-86.5 833,-80.5 833,-80.5 833,-12.5 833,-12.5 833,-6.5 839,-0.5 845,-0.5"/>
<text text-anchor="middle" x="930" y="-77.3" font-family="Helvetica,sans-Serif" font-size="14.00" fill="#000000">Number</text>
<polyline fill="none" stroke="#000000" stroke-width="2.5" points="833,-69.5 1027,-69.5 "/>
<text text-anchor="middle" x="930" y="-54.3" font-family="Helvetica,sans-Serif" font-size="14.00" fill="#000000">addr: 0x56195ec850f0</text>
<polyline fill="none" stroke="#000000" stroke-width="2.5" points="833,-46.5 1027,-46.5 "/>
<text text-anchor="middle" x="930" y="-31.3" font-family="Helvetica,sans-Serif" font-size="14.00" fill="#000000">parent: 0x56195ec85140</text>
<polyline fill="none" stroke="#000000" stroke-width="2.5" points="833,-23.5 1027,-23.5 "/>
<text text-anchor="middle" x="930" y="-8.3" font-family="Helvetica,sans-Serif" font-size="14.00" fill="#000000">value: 4</text>
</g>
<!-- node_0x56195ec85140&#45;&gt;node_0x56195ec850f0 -->
<g id="edge11" class="edge">
<title>node_0x56195ec85140&#45;&gt;node_0x56195ec850f0</title>
<path fill="none" stroke="black" d="M904.86,-129.37C907.53,-120.68 910.35,-111.48 913.1,-102.52"/>
<polygon fill="black" stroke="black" points="916.46,-103.5 916.05,-92.92 909.77,-101.45 916.46,-103.5"/>
</g>
<!-- node_0x56195ec85200 -->
<g id="node14" class="node">
<title>node_0x56195ec85200</title>
<path fill="plum" stroke="#000000" stroke-width="2.5" d="M1095,-129.5C1095,-129.5 1423,-129.5 1423,-129.5 1429,-129.5 1435,-135.5 1435,-141.5 1435,-141.5 1435,-209.5 1435,-209.5 1435,-215.5 1429,-221.5 1423,-221.5 1423,-221.5 1095,-221.5 1095,-221.5 1089,-221.5 1083,-215.5 1083,-209.5 1083,-209.5 1083,-141.5 1083,-141.5 1083,-135.5 1089,-129.5 1095,-129.5"/>
<text text-anchor="middle" x="1259" y="-206.3" font-family="Helvetica,sans-Serif" font-size="14.00" fill="#000000">Assignment</text>
<polyline fill="none" stroke="#000000" stroke-width="2.5" points="1083,-198.5 1435,-198.5 "/>
<text text-anchor="middle" x="1259" y="-183.3" font-family="Helvetica,sans-Serif" font-size="14.00" fill="#000000">addr: 0x56195ec85200</text>
<polyline fill="none" stroke="#000000" stroke-width="2.5" points="1083,-175.5 1435,-175.5 "/>
<text text-anchor="middle" x="1259" y="-160.3" font-family="Helvetica,sans-Serif" font-size="14.00" fill="#000000">parent: 0x56195ec85240</text>
<polyline fill="none" stroke="#000000" stroke-width="2.5" points="1083,-152.5 1435,-152.5 "/>
<text text-anchor="middle" x="1168" y="-137.3" font-family="Helvetica,sans-Serif" font-size="14.00" fill="#000000">left: 0x56195ec851d0</text>
<polyline fill="none" stroke="#000000" stroke-width="2.5" points="1253,-129.5 1253,-152.5 "/>
<text text-anchor="middle" x="1344" y="-137.3" font-family="Helvetica,sans-Serif" font-size="14.00" fill="#000000">right: 0x56195ec851b0</text>
</g>
<!-- node_0x56195ec85240&#45;&gt;node_0x56195ec85200 -->
<g id="edge13" class="edge">
<title>node_0x56195ec85240&#45;&gt;node_0x56195ec85200</title>
<path fill="none" stroke="black" d="M1207.89,-269.65C1214.71,-257.21 1222.18,-243.61 1229.24,-230.73"/>
<polygon fill="black" stroke="black" points="1232.32,-232.4 1234.06,-221.95 1226.18,-229.04 1232.32,-232.4"/>
</g>
<!-- node_0x56195ec851d0 -->
<g id="node15" class="node">
<title>node_0x56195ec851d0</title>
<path fill="cornflowerblue" stroke="#000000" stroke-width="2.5" d="M1135,-0.5C1135,-0.5 1305,-0.5 1305,-0.5 1311,-0.5 1317,-6.5 1317,-12.5 1317,-12.5 1317,-80.5 1317,-80.5 1317,-86.5 1311,-92.5 1305,-92.5 1305,-92.5 1135,-92.5 1135,-92.5 1129,-92.5 1123,-86.5 1123,-80.5 1123,-80.5 1123,-12.5 1123,-12.5 1123,-6.5 1129,-0.5 1135,-0.5"/>
<text text-anchor="middle" x="1220" y="-77.3" font-family="Helvetica,sans-Serif" font-size="14.00" fill="#000000">Variable</text>
<polyline fill="none" stroke="#000000" stroke-width="2.5" points="1123,-69.5 1317,-69.5 "/>
<text text-anchor="middle" x="1220" y="-54.3" font-family="Helvetica,sans-Serif" font-size="14.00" fill="#000000">addr: 0x56195ec851d0</text>
<polyline fill="none" stroke="#000000" stroke-width="2.5" points="1123,-46.5 1317,-46.5 "/>
<text text-anchor="middle" x="1220" y="-31.3" font-family="Helvetica,sans-Serif" font-size="14.00" fill="#000000">parent: 0x56195ec85200</text>
<polyline fill="none" stroke="#000000" stroke-width="2.5" points="1123,-23.5 1317,-23.5 "/>
<text text-anchor="middle" x="1220" y="-8.3" font-family="Helvetica,sans-Serif" font-size="14.00" fill="#000000">name: s</text>
</g>
<!-- node_0x56195ec85200&#45;&gt;node_0x56195ec851d0 -->
<g id="edge14" class="edge">
<title>node_0x56195ec85200&#45;&gt;node_0x56195ec851d0</title>
<path fill="none" stroke="black" d="M1245.14,-129.37C1242.47,-120.68 1239.65,-111.48 1236.9,-102.52"/>
<polygon fill="black" stroke="black" points="1240.23,-101.45 1233.95,-92.92 1233.54,-103.5 1240.23,-101.45"/>
</g>
<!-- node_0x56195ec851b0 -->
<g id="node16" class="node">
<title>node_0x56195ec851b0</title>
<path fill="palegreen" stroke="#000000" stroke-width="2.5" d="M1347,-0.5C1347,-0.5 1517,-0.5 1517,-0.5 1523,-0.5 1529,-6.5 1529,-12.5 1529,-12.5 1529,-80.5 1529,-80.5 1529,-86.5 1523,-92.5 1517,-92.5 1517,-92.5 1347,-92.5 1347,-92.5 1341,-92.5 1335,-86.5 1335,-80.5 1335,-80.5 1335,-12.5 1335,-12.5 1335,-6.5 1341,-0.5 1347,-0.5"/>
<text text-anchor="middle" x="1432" y="-77.3" font-family="Helvetica,sans-Serif" font-size="14.00" fill="#000000">Number</text>
<polyline fill="none" stroke="#000000" stroke-width="2.5" points="1335,-69.5 1529,-69.5 "/>
<text text-anchor="middle" x="1432" y="-54.3" font-family="Helvetica,sans-Serif" font-size="14.00" fill="#000000">addr: 0x56195ec851b0</text>
<polyline fill="none" stroke="#000000" stroke-width="2.5" points="1335,-46.5 1529,-46.5 "/>
<text text-anchor="middle" x="1432" y="-31.3" font-family="Helvetica,sans-Serif" font-size="14.00" fill="#000000">parent: 0x56195ec85200</text>
<polyline fill="none" stroke="#000000" stroke-width="2.5" points="1335,-23.5 1529,-23.5 "/>
<text text-anchor="middle" x="1432" y="-8.3" font-family="Helvetica,sans-Serif" font-size="14.00" fill="#000000">value: 6</text>
</g>
<!-- node_0x56195ec85200&#45;&gt;node_0x56195ec851b0 -->
<g id="edge15" class="edge">
<title>node_0x56195ec85200&#45;&gt;node_0x56195ec851b0</title>
<path fill="none" stroke="black" d="M1320.48,-129.37C1334.04,-119.41 1348.49,-108.8 1362.35,-98.63"/>
<polygon fill="black" stroke="black" points="1364.44,-101.44 1370.43,-92.7 1360.29,-95.8 1364.44,-101.44"/>
</g>
</g>
</svg>
